<?xml version="1.0" standalone="no"?>
<!DOCTYPE svg PUBLIC "-//W3C//DTD SVG 20010904//EN"
 "http://www.w3.org/TR/2001/REC-SVG-20010904/DTD/svg10.dtd">
<svg version="1.0" xmlns="http://www.w3.org/2000/svg"
 width="311.000000pt" height="304.000000pt" viewBox="0 0 311.000000 304.000000"
 preserveAspectRatio="xMidYMid meet">

<g transform="translate(0.000000,304.000000) scale(0.100000,-0.100000)"
fill="#000000" stroke="none">
<path d="M1380 2855 c0 -28 -4 -35 -20 -35 -11 0 -20 5 -20 10 0 6 -13 10 -29
10 -21 0 -30 -6 -35 -22 -3 -13 -1 -27 4 -32 6 -6 10 -22 10 -37 0 -54 2 -55
108 -46 126 11 142 14 142 32 0 17 -56 21 -62 5 -1 -5 -30 -13 -64 -16 -58 -6
-61 -5 -67 17 -13 46 -8 59 18 59 18 0 25 -5 25 -19 0 -14 6 -17 25 -13 18 3
25 11 25 28 0 18 6 24 21 24 16 0 19 -4 14 -20 -6 -17 -2 -20 30 -20 35 0 36
1 33 33 -3 31 -4 32 -43 29 -22 -2 -44 -5 -50 -5 -5 -1 -11 10 -13 26 -3 21
-9 27 -28 27 -21 0 -24 -5 -24 -35z"/>
<path d="M1634 2810 c-5 -49 -12 -73 -23 -80 -14 -8 -14 -9 2 -10 38 0 56 19
62 68 10 73 7 71 67 60 78 -14 88 -32 13 -23 -68 8 -71 -2 -5 -13 63 -11 63
-30 0 -24 -46 4 -50 3 -50 -17 0 -22 33 -30 45 -11 7 12 45 13 45 2 0 -10 -49
-36 -95 -51 -28 -9 -26 -9 23 -10 29 -1 62 4 73 10 16 8 25 7 37 -4 36 -32
132 -67 132 -48 0 4 -14 11 -31 15 -36 7 -96 63 -83 76 14 14 52 0 57 -21 6
-23 42 -25 51 -3 9 24 0 31 -51 39 -54 8 -66 13 -58 25 3 4 22 4 42 0 83 -17
104 -19 98 -11 -3 5 -29 13 -59 16 -54 7 -85 19 -75 30 6 5 39 0 127 -20 12
-3 22 -1 22 3 0 12 -286 71 -347 72 -7 0 -14 -26 -19 -70z"/>
<path d="M1146 2814 c5 -20 2 -26 -15 -31 -11 -3 -19 -9 -16 -13 3 -5 14 -6
24 -3 16 4 20 -3 26 -38 5 -29 4 -44 -4 -47 -25 -8 -9 -23 19 -18 17 3 44 9
60 12 17 3 28 10 25 14 -3 5 -12 7 -20 4 -22 -9 -37 77 -17 94 14 11 14 12 0
12 -9 0 -18 9 -21 20 -4 15 -14 20 -36 20 -29 0 -31 -2 -25 -26z"/>
<path d="M940 2764 c-173 -101 -280 -166 -280 -172 0 -11 111 -147 118 -145 4
1 75 44 159 94 l152 91 -40 79 c-21 44 -45 79 -52 79 -6 0 -32 -12 -57 -26z
m57 -79 c15 -30 25 -56 22 -58 -9 -8 -210 -127 -214 -127 -2 0 -20 23 -40 52
l-38 52 23 15 c40 28 204 121 212 121 5 0 20 -25 35 -55z"/>
<path d="M859 2664 c-106 -63 -105 -62 -96 -70 4 -4 18 1 31 10 42 27 53 17
16 -14 -35 -30 -23 -43 14 -15 23 17 36 19 36 6 0 -6 -13 -18 -29 -27 -17 -10
-28 -21 -25 -25 5 -9 194 102 194 114 0 5 -9 5 -20 2 -22 -7 -26 5 -8 23 9 9
8 12 -4 12 -9 0 -20 -4 -23 -10 -3 -5 -14 -10 -23 -10 -13 1 -9 7 13 25 55 45
19 35 -76 -21z m87 -41 c-10 -10 -19 5 -10 18 6 11 8 11 12 0 2 -7 1 -15 -2
-18z"/>
<path d="M2070 2722 c0 -4 29 -22 65 -40 37 -18 63 -37 60 -42 -3 -6 -45 -10
-93 -11 l-87 -1 50 -14 c28 -7 73 -14 100 -14 48 -1 51 -2 82 -48 41 -60 98
-115 113 -110 7 2 -2 21 -25 48 -40 48 -69 99 -61 107 3 3 28 -11 56 -32 27
-20 55 -35 62 -33 6 2 -16 24 -50 48 -34 23 -62 46 -62 49 0 4 6 13 13 20 10
10 7 16 -13 31 -25 20 -25 19 -42 -1 l-18 -21 -67 36 c-69 37 -83 42 -83 28z"/>
<path d="M1426 2609 c-90 -9 -203 -37 -290 -69 l-60 -23 37 -19 c57 -29 212
-67 322 -78 192 -20 431 15 560 82 l29 16 -39 17 c-68 29 -226 65 -325 75
-107 11 -124 11 -234 -1z"/>
<path d="M551 2440 c-42 -48 -57 -59 -74 -55 -26 7 -54 -29 -38 -48 7 -9 -5
-30 -39 -71 -27 -33 -47 -62 -45 -66 2 -4 23 -20 45 -35 l42 -29 26 34 c63 81
69 86 91 73 16 -10 21 -9 34 11 13 20 14 25 2 37 -13 12 -7 23 40 75 l54 61
-22 19 c-69 60 -58 61 -116 -6z m43 -74 c-32 -38 -44 -42 -62 -24 -17 17 -15
23 20 63 31 36 31 36 51 16 20 -20 20 -20 -9 -55z m-84 -91 c-1 -5 -11 -23
-24 -39 -20 -24 -26 -27 -45 -17 -27 15 -27 23 5 60 22 26 28 29 45 18 10 -6
19 -16 19 -22z"/>
<path d="M2480 2485 c-11 -13 -10 -19 5 -35 9 -10 23 -16 30 -14 16 7 177
-185 171 -203 -3 -7 3 -22 13 -35 16 -19 21 -21 35 -9 12 10 14 17 6 25 -5 5
-10 19 -10 31 -1 27 -26 59 -40 50 -14 -9 -39 23 -40 51 0 11 -11 31 -25 44
-14 13 -25 18 -25 11 0 -7 -4 -9 -10 -6 -5 3 -10 16 -10 29 0 24 -35 64 -47
53 -3 -4 -14 0 -23 8 -15 14 -18 14 -30 0z"/>
<path d="M954 2452 c-95 -58 -153 -105 -231 -184 -65 -67 -153 -181 -153 -199
0 -14 172 -95 177 -82 2 7 27 49 54 95 62 103 141 207 230 302 l68 73 -35 16
c-19 10 -38 17 -42 17 -4 -1 -34 -17 -68 -38z"/>
<path d="M2040 2473 c-14 -9 -27 -18 -29 -19 -2 -2 30 -39 70 -82 90 -96 173
-211 230 -317 23 -44 44 -82 45 -84 4 -4 184 91 184 98 0 17 -139 188 -193
236 -84 77 -244 185 -274 185 -5 0 -20 -8 -33 -17z"/>
<path d="M1061 2344 c-118 -125 -287 -374 -265 -393 5 -4 28 -15 51 -25 l42
-19 28 34 c15 19 44 52 64 74 19 22 64 88 99 147 35 59 88 137 117 173 36 43
50 66 41 69 -7 2 -28 9 -47 15 -19 6 -37 11 -41 11 -4 0 -44 -39 -89 -86z"/>
<path d="M1892 2413 l-42 -15 38 -46 c50 -61 119 -163 157 -233 16 -31 62 -91
102 -133 l72 -78 45 17 c25 10 46 23 46 29 0 17 -107 193 -158 261 -78 103
-183 215 -201 214 -9 -1 -35 -8 -59 -16z"/>
<path d="M2430 2423 c0 -6 23 -37 51 -67 51 -56 49 -79 -3 -29 -47 45 -41 20
9 -39 39 -45 53 -55 73 -52 20 3 32 -5 64 -46 21 -28 41 -49 44 -46 2 3 -8 22
-24 42 -60 75 -62 78 -36 72 12 -3 25 -2 28 3 6 10 -105 149 -119 149 -10 0 3
-19 42 -62 23 -26 23 -28 6 -34 -15 -6 -32 7 -77 57 -32 35 -58 59 -58 52z"/>
<path d="M1269 2345 c-46 -49 -120 -150 -145 -198 l-15 -29 44 26 c71 42 197
84 291 97 l86 12 0 57 0 57 -87 6 c-49 4 -98 9 -109 13 -17 4 -31 -5 -65 -41z"/>
<path d="M1740 2379 c-25 -4 -71 -8 -102 -8 l-58 -1 0 -59 0 -59 58 -6 c88
-11 196 -43 272 -81 39 -19 70 -33 70 -29 0 14 -123 183 -157 215 -36 33 -41
35 -83 28z"/>
<path d="M1470 2203 c-263 -34 -489 -192 -596 -418 -48 -100 -86 -265 -61
-265 7 0 154 18 327 40 173 22 323 40 333 40 15 0 17 13 17 140 l0 140 -27 17
c-23 15 -55 19 -200 21 l-173 4 0 53 c0 62 -12 57 174 81 193 24 457 16 588
-19 100 -26 245 -94 240 -112 -1 -6 -80 -10 -210 -10 -165 0 -213 -3 -237 -15
l-30 -15 -3 -140 -2 -140 317 -39 c175 -21 331 -40 346 -43 28 -6 28 -5 21 38
-53 366 -335 622 -706 642 -46 3 -99 3 -118 0z"/>
<path d="M532 2007 c-19 -22 -72 -163 -92 -244 -11 -43 -23 -118 -26 -166 l-7
-88 109 3 109 3 3 45 c4 73 32 199 64 289 16 45 28 84 26 86 -5 5 -167 85
-172 85 -2 0 -8 -6 -14 -13z"/>
<path d="M2468 1977 c-43 -24 -80 -45 -82 -48 -3 -3 8 -46 24 -97 29 -88 60
-239 60 -288 0 -24 1 -24 115 -24 l116 0 -6 53 c-13 115 -29 195 -51 262 -31
97 -73 185 -87 185 -7 0 -47 -20 -89 -43z"/>
<path d="M755 1876 c-31 -74 -66 -215 -72 -288 l-6 -78 39 0 40 0 12 83 c11
65 47 174 88 262 2 6 -16 21 -41 33 l-46 22 -14 -34z"/>
<path d="M2280 1884 c-19 -8 -36 -16 -37 -18 -2 -2 10 -30 26 -62 35 -71 58
-150 67 -227 l7 -57 39 0 40 0 -7 63 c-14 127 -68 317 -89 317 -6 -1 -27 -8
-46 -16z"/>
<path d="M2830 1871 c-5 -11 -10 -36 -10 -56 0 -42 -25 -59 -46 -30 -18 25
-18 40 2 60 20 20 11 33 -11 15 -25 -20 -19 -77 9 -95 39 -26 64 -6 68 53 3
43 5 47 28 47 21 0 26 -5 28 -34 2 -18 -1 -38 -7 -44 -20 -20 -11 -30 9 -12
24 22 25 46 5 85 -18 35 -58 41 -75 11z"/>
<path d="M207 1862 c-21 -23 -22 -85 -2 -102 22 -18 31 -4 12 18 -36 39 -12
86 43 84 41 -1 69 -19 76 -49 6 -21 1 -31 -20 -50 -25 -21 -25 -23 -7 -23 46
0 57 86 15 119 -34 27 -95 28 -117 3z"/>
<path d="M2925 1684 c4 -42 2 -53 -11 -58 -34 -13 -43 -6 -50 39 -8 58 -23 59
-17 1 5 -39 3 -44 -18 -49 -30 -8 -30 -7 -36 48 -3 25 -10 45 -15 45 -8 0 -6
-32 7 -96 4 -19 9 -20 62 -13 32 4 68 8 79 8 20 1 21 5 16 49 -2 26 -9 54 -14
62 -6 10 -7 -3 -3 -36z"/>
<path d="M170 1701 c0 -6 16 -11 35 -11 35 0 35 0 35 -45 l0 -45 -40 0 c-22 0
-40 -4 -40 -10 0 -5 12 -10 28 -10 15 0 51 -3 80 -6 36 -5 52 -3 52 5 0 6 -16
11 -36 11 -36 0 -36 1 -30 31 3 17 6 38 6 45 0 9 12 14 35 14 19 0 35 5 35 10
0 6 -19 10 -42 10 -24 0 -60 3 -80 6 -25 5 -38 3 -38 -5z"/>
<path d="M1610 1525 l0 -35 268 1 c147 0 263 2 257 5 -12 4 -484 64 -509 64
-12 0 -16 -9 -16 -35z"/>
<path d="M2796 1544 c-32 -31 -18 -87 26 -110 57 -30 128 4 128 61 0 27 -27
65 -46 65 -21 0 -17 -17 6 -23 28 -7 28 -72 1 -87 -33 -17 -71 -11 -96 15 -30
29 -31 39 -5 65 11 11 20 22 20 25 0 10 -19 4 -34 -11z"/>
<path d="M197 1513 c24 -2 62 -2 85 0 24 2 5 4 -42 4 -47 0 -66 -2 -43 -4z"/>
<path d="M965 1485 c10 -5 491 -65 512 -65 8 0 13 14 13 35 l0 35 -267 -1
c-148 0 -263 -2 -258 -4z"/>
<path d="M414 1403 c11 -107 42 -222 85 -323 57 -133 54 -131 148 -80 43 23
79 43 80 44 1 1 -10 33 -26 72 -36 89 -71 237 -71 303 l0 51 -111 0 -111 0 6
-67z"/>
<path d="M680 1428 c0 -56 23 -163 55 -258 36 -108 36 -107 84 -85 23 10 41
20 41 22 0 2 -11 25 -24 51 -34 67 -64 172 -72 247 l-7 65 -38 0 -39 0 0 -42z"/>
<path d="M805 1459 c-3 -4 1 -42 9 -85 43 -242 187 -430 411 -534 106 -50 200
-70 328 -70 385 0 687 264 741 648 6 38 4 42 -15 42 -30 0 -662 -80 -667 -84
-3 -3 -14 -495 -12 -559 0 -16 -7 -18 -52 -15 l-53 3 -3 288 c-1 158 -3 287
-5 287 -73 14 -679 84 -682 79z"/>
<path d="M2336 1405 c-8 -76 -38 -180 -73 -248 -13 -27 -23 -50 -21 -51 10 -6
79 -36 82 -36 2 0 15 28 29 63 29 74 53 177 63 270 l7 67 -40 0 -40 0 -7 -65z"/>
<path d="M2462 1369 c-8 -63 -25 -140 -47 -203 -19 -55 -36 -105 -37 -109 -3
-8 148 -97 163 -97 10 0 65 111 92 187 30 83 57 216 57 279 l0 44 -108 0 -108
0 -12 -101z"/>
<path d="M203 1453 c-24 -2 -43 -9 -43 -14 0 -6 26 -7 68 -3 l67 6 -30 -26
c-16 -14 -45 -36 -62 -48 -53 -37 -43 -48 35 -41 93 8 126 25 40 19 -38 -2
-68 -1 -68 3 0 3 25 24 55 45 86 62 76 71 -62 59z"/>
<path d="M2790 1382 c8 -5 38 -13 65 -17 l50 -8 -72 -34 c-40 -18 -73 -37 -73
-42 0 -11 29 -18 105 -25 67 -7 52 6 -25 22 l-45 9 73 33 c74 34 85 45 55 54
-37 10 -148 17 -133 8z"/>
<path d="M180 1271 c0 -6 11 -11 24 -11 28 0 31 -3 40 -47 6 -26 4 -32 -13
-38 -12 -3 -21 -13 -21 -21 0 -9 24 2 70 32 39 26 70 53 70 59 0 8 -22 15 -57
19 -32 4 -70 9 -85 12 -17 3 -28 1 -28 -5z m125 -46 c-32 -26 -45 -31 -45 -16
0 5 -3 16 -6 25 -5 13 2 16 37 16 l44 -1 -30 -24z"/>
<path d="M2736 1191 c-9 -30 -13 -58 -9 -61 10 -9 143 -44 147 -39 10 11 32
109 25 109 -5 0 -14 -20 -20 -45 -8 -30 -17 -45 -28 -45 -28 0 -43 16 -37 39
3 11 9 30 12 41 3 11 1 20 -4 20 -4 0 -13 -17 -18 -37 -9 -38 -28 -50 -53 -34
-11 7 -11 15 -1 45 6 20 10 42 7 49 -2 6 -12 -13 -21 -42z"/>
<path d="M2695 1080 c-4 -7 29 -22 143 -67 6 -3 12 -1 12 5 0 13 -148 73 -155
62z"/>
<path d="M2171 1014 c-23 -30 -73 -79 -110 -109 -37 -30 -73 -67 -80 -82 -17
-37 -88 -142 -118 -174 l-24 -26 61 -20 60 -20 93 96 c51 53 113 125 139 161
60 85 110 170 106 182 -2 5 -22 17 -44 27 l-41 19 -42 -54z"/>
<path d="M838 1043 c-21 -8 -38 -18 -38 -22 0 -4 26 -48 59 -97 58 -88 170
-222 249 -298 l41 -39 48 13 c26 7 51 15 55 17 4 2 -14 30 -40 62 -26 33 -63
86 -82 119 -21 35 -61 80 -97 110 -33 28 -78 73 -99 101 -22 28 -43 50 -49 50
-5 0 -27 -7 -47 -16z"/>
<path d="M2665 995 c-34 -33 -33 -77 1 -104 56 -44 106 -39 131 14 15 31 15
36 -1 60 -21 31 -33 27 -16 -5 41 -77 -67 -110 -116 -35 -15 23 -15 27 0 50 9
14 25 25 36 25 11 0 20 5 20 10 0 18 -31 10 -55 -15z"/>
<path d="M378 979 c-68 -35 -82 -65 -51 -107 11 -15 28 -29 37 -30 19 -4 126
47 126 60 0 12 -4 11 -65 -19 -63 -31 -88 -25 -93 20 -3 22 5 31 52 58 31 17
56 35 56 40 0 11 5 13 -62 -22z"/>
<path d="M668 962 c-37 -21 -70 -41 -74 -45 -10 -9 63 -103 142 -181 67 -68
178 -152 248 -188 37 -19 40 -19 77 -2 l39 17 -74 77 c-96 101 -187 215 -233
295 -21 36 -42 65 -48 65 -5 0 -40 -17 -77 -38z"/>
<path d="M2304 923 c-66 -108 -125 -184 -216 -279 l-78 -81 40 -18 39 -18 87
54 c95 58 259 212 312 291 l32 46 -75 41 c-41 23 -78 41 -83 41 -6 0 -31 -35
-58 -77z"/>
<path d="M443 821 c-72 -56 -74 -78 -3 -26 26 19 50 35 54 35 3 0 -5 -30 -19
-66 -28 -73 -30 -84 -15 -84 13 0 129 83 129 93 2 15 -17 6 -63 -29 -25 -21
-48 -35 -50 -33 -2 2 7 31 20 63 24 60 31 97 17 95 -5 0 -36 -22 -70 -48z"/>
<path d="M2571 846 c-15 -16 -21 -33 -19 -52 4 -42 45 -44 90 -6 37 32 58 32
58 -2 0 -26 -29 -56 -53 -56 -9 0 -17 -4 -17 -10 0 -17 39 -11 60 10 26 26 35
66 20 85 -19 22 -54 18 -80 -10 -24 -26 -54 -33 -65 -15 -10 17 23 60 46 60
11 0 17 5 14 10 -10 17 -30 11 -54 -14z"/>
<path d="M1190 790 c15 -28 110 -144 123 -151 7 -4 58 -2 115 4 l102 11 0 32
c0 32 -1 33 -57 39 -71 8 -194 40 -251 65 -41 19 -42 19 -32 0z"/>
<path d="M1860 785 c-59 -25 -155 -50 -232 -60 -46 -6 -48 -7 -48 -39 l0 -33
103 -11 102 -11 28 32 c26 29 111 148 105 146 -2 0 -28 -11 -58 -24z"/>
<path d="M2465 715 c-51 -50 -12 -135 62 -135 36 0 83 36 83 64 0 29 -24 68
-51 82 -40 20 -67 17 -94 -11z m102 -17 c28 -26 30 -61 3 -88 -24 -24 -32 -25
-70 -5 -41 21 -54 70 -28 103 17 19 69 14 95 -10z"/>
<path d="M555 675 c-33 -30 -54 -54 -46 -55 13 0 112 84 119 102 9 21 -19 3
-73 -47z"/>
<path d="M621 614 c-20 -44 -31 -78 -25 -83 5 -5 44 8 88 29 43 21 73 40 68
44 -6 4 -38 -7 -71 -24 -33 -16 -63 -30 -66 -30 -3 0 8 27 25 60 30 60 36 80
23 80 -5 -1 -23 -34 -42 -76z"/>
<path d="M2352 608 c-23 -18 -41 -37 -41 -43 0 -5 22 -34 48 -64 36 -40 52
-51 63 -45 31 18 80 65 75 71 -3 3 -23 -9 -44 -26 l-37 -31 -21 21 -20 20 34
30 c19 16 32 32 28 36 -4 3 -21 -6 -37 -22 -29 -28 -30 -28 -51 -9 l-21 19 38
32 c50 44 38 53 -14 11z"/>
<path d="M1383 589 c-121 -15 -293 -68 -293 -90 0 -11 165 -63 255 -80 88 -17
339 -18 420 -1 83 18 255 74 255 83 0 9 -89 43 -166 63 -135 34 -324 45 -471
25z m11 -41 c8 -37 2 -118 -9 -118 -5 0 -11 22 -13 49 -2 39 -6 49 -18 44 -19
-7 -18 3 4 26 23 26 31 25 36 -1z m110 0 c40 -56 -12 -157 -59 -118 -16 14
-20 40 -6 40 5 0 11 -7 15 -15 6 -18 36 -9 36 11 0 8 -6 11 -15 8 -22 -9 -45
14 -45 45 0 51 46 69 74 29z m106 12 c0 -9 -14 -12 -36 -9 -4 0 -11 -5 -15
-13 -6 -9 -2 -15 13 -18 29 -7 42 -32 34 -63 -8 -34 -41 -44 -67 -21 -13 12
-16 21 -9 28 7 7 14 5 22 -7 16 -21 42 -7 36 19 -3 14 -11 18 -31 17 -22 -1
-27 2 -27 22 0 43 10 55 46 55 19 0 34 -4 34 -10z m88 -2 c19 -19 14 -44 -14
-77 l-26 -31 26 0 c16 0 26 -6 26 -15 0 -11 -11 -15 -39 -15 -22 0 -42 4 -45
9 -3 5 10 28 29 51 19 23 35 46 35 51 0 18 -32 22 -42 5 -13 -24 -31 -10 -18
15 12 21 50 25 68 7z"/>
<path d="M1454 536 c-8 -22 3 -49 19 -43 6 2 12 14 12 27 0 27 -22 39 -31 16z"/>
<path d="M728 516 l-47 -64 44 -31 c24 -17 49 -31 56 -31 7 0 -6 14 -29 31
-47 35 -49 39 -24 62 17 16 21 15 52 -8 44 -33 53 -22 11 13 -31 25 -32 30
-20 49 l13 21 43 -29 c24 -17 43 -26 43 -21 0 8 -83 73 -92 72 -1 -1 -24 -29
-50 -64z"/>
<path d="M2206 499 c-40 -32 -31 -102 18 -135 31 -20 67 -13 99 19 12 12 25
21 30 19 12 -4 8 9 -14 44 l-21 34 -29 -21 c-34 -24 -33 -37 1 -19 40 21 49
-27 12 -57 -40 -33 -102 9 -102 68 0 37 39 66 69 50 11 -6 22 -7 25 -2 7 10
-16 21 -43 21 -10 0 -30 -9 -45 -21z"/>
<path d="M857 420 c-35 -67 -38 -98 -3 -45 20 30 36 31 67 6 21 -17 22 -21 11
-46 -8 -16 -9 -32 -4 -37 5 -5 15 10 23 34 7 24 22 50 33 59 26 22 14 51 -33
77 -21 12 -43 22 -47 22 -5 0 -26 -32 -47 -70z m98 27 c18 -15 24 -28 20 -40
-9 -21 -27 -22 -65 -2 -27 14 -28 18 -18 40 14 31 29 31 63 2z"/>
<path d="M1042 398 c-23 -23 -13 -55 23 -78 38 -23 44 -40 21 -60 -21 -17 -70
8 -74 38 -4 26 -22 30 -22 4 0 -27 32 -52 73 -59 32 -5 38 -3 49 22 12 26 10
30 -25 60 -53 46 -46 87 11 62 20 -9 26 -20 23 -39 0 -5 4 -8 9 -8 19 0 10 39
-12 54 -27 19 -59 21 -76 4z"/>
<path d="M1268 383 c7 -3 16 -2 19 1 4 3 -2 6 -13 5 -11 0 -14 -3 -6 -6z"/>
<path d="M1931 374 c-24 -7 -45 -15 -47 -17 -8 -7 43 -141 54 -145 9 -3 10 3
2 24 -14 37 -7 51 29 59 17 4 31 11 31 16 0 6 -9 7 -22 3 -41 -13 -60 -10 -69
13 -7 19 -3 23 29 34 20 6 41 15 47 20 12 12 0 10 -54 -7z"/>
<path d="M1318 373 c7 -3 16 -2 19 1 4 3 -2 6 -13 5 -11 0 -14 -3 -6 -6z"/>
<path d="M1388 363 c6 -2 18 -2 25 0 6 3 1 5 -13 5 -14 0 -19 -2 -12 -5z"/>
<path d="M1175 298 c-9 -34 -19 -68 -22 -75 -3 -7 -1 -13 5 -13 6 0 19 31 31
69 24 78 24 81 12 81 -4 0 -16 -28 -26 -62z"/>
<path d="M1497 353 c18 -2 50 -2 70 0 21 2 7 4 -32 4 -38 0 -55 -2 -38 -4z"/>
<path d="M1244 342 c4 -7 15 -12 25 -12 28 0 29 -7 15 -68 -16 -67 -17 -85 -5
-78 5 3 14 36 21 72 13 65 13 66 41 60 16 -3 29 -2 29 3 0 5 -15 11 -32 14
-18 3 -48 9 -67 13 -25 5 -32 4 -27 -4z"/>
<path d="M1739 321 c-36 -29 -33 -95 5 -128 53 -45 126 -9 126 64 0 69 -78
107 -131 64z m85 -12 c50 -39 28 -119 -33 -119 -35 0 -50 17 -58 63 -4 29 -1
37 22 55 34 27 36 27 69 1z"/>
<path d="M1415 269 c19 -36 24 -59 20 -80 -4 -18 -3 -29 4 -29 6 0 11 11 11
24 0 14 16 46 36 71 40 53 37 77 -4 27 -15 -18 -30 -32 -34 -32 -4 0 -14 16
-22 35 -8 19 -20 35 -26 35 -6 0 1 -23 15 -51z"/>
</g>
</svg>
