<?xml version="1.0" standalone="no"?>
<!DOCTYPE svg PUBLIC "-//W3C//DTD SVG 20010904//EN"
 "http://www.w3.org/TR/2001/REC-SVG-20010904/DTD/svg10.dtd">
<svg version="1.0" xmlns="http://www.w3.org/2000/svg"
 width="436.000000pt" height="116.000000pt" viewBox="0 0 436.000000 116.000000"
 preserveAspectRatio="xMidYMid meet">

<g transform="translate(0.000000,116.000000) scale(0.100000,-0.100000)"
fill="#000000" stroke="none">
<path d="M59 965 l46 -185 41 0 42 0 31 118 c18 64 36 126 40 136 7 18 27 -40
71 -211 11 -42 12 -43 53 -43 l42 0 46 185 45 185 -37 0 c-43 0 -38 11 -71
-142 -12 -60 -25 -108 -28 -108 -3 0 -19 55 -36 123 l-30 122 -46 3 -46 3 -15
-53 c-9 -29 -24 -83 -33 -120 -10 -38 -21 -68 -25 -68 -3 0 -14 37 -23 83 -35
163 -32 157 -75 157 l-38 0 46 -185z"/>
<path d="M869 1061 l60 -88 -65 -97 -64 -96 44 0 c44 0 46 2 86 60 22 33 43
60 45 60 2 0 23 -27 45 -60 40 -59 42 -60 86 -60 l46 0 -66 95 -66 95 60 90
61 90 -45 0 c-44 0 -45 -1 -82 -61 l-37 -61 -40 61 c-38 59 -41 61 -84 61
l-44 0 60 -89z"/>
<path d="M1170 1120 c0 -28 2 -30 40 -30 38 0 40 2 40 30 0 28 -2 30 -40 30
-38 0 -40 -2 -40 -30z"/>
<path d="M1430 966 l0 -186 120 0 c133 0 168 10 188 55 19 42 15 83 -13 110
-13 14 -29 25 -36 25 -6 0 0 12 15 26 34 35 35 83 2 121 -24 28 -26 28 -150
31 l-126 4 0 -186z m218 112 c17 -17 15 -38 -5 -60 -12 -13 -31 -18 -75 -18
l-58 0 0 45 0 45 63 0 c36 0 68 -5 75 -12z m3 -148 c22 -12 26 -59 7 -78 -7
-7 -40 -12 -80 -12 l-68 0 0 50 0 50 61 0 c33 0 69 -5 80 -10z"/>
<path d="M1800 1120 c0 -28 3 -30 35 -30 32 0 35 2 35 30 0 28 -3 30 -35 30
-32 0 -35 -2 -35 -30z"/>
<path d="M2230 965 l0 -185 40 0 40 0 0 185 0 185 -40 0 -40 0 0 -185z"/>
<path d="M2980 1120 c0 -28 3 -30 35 -30 32 0 35 2 35 30 0 28 -3 30 -35 30
-32 0 -35 -2 -35 -30z"/>
<path d="M530 936 c0 -131 10 -153 72 -163 28 -4 46 0 73 15 28 17 35 18 35 7
0 -10 11 -15 35 -15 l35 0 0 135 0 135 -34 0 -34 0 -4 -96 c-3 -86 -5 -98 -27
-115 -28 -23 -45 -24 -65 -3 -12 12 -16 38 -16 115 l0 99 -35 0 -35 0 0 -114z"/>
<path d="M1170 916 l0 -136 40 0 41 0 -3 133 -3 132 -37 3 -38 3 0 -135z"/>
<path d="M1800 915 l0 -135 35 0 35 0 0 135 0 135 -35 0 -35 0 0 -135z"/>
<path d="M1972 1030 c-57 -35 -77 -115 -47 -186 10 -25 26 -40 57 -54 112 -51
208 8 208 128 0 45 -4 57 -34 89 -30 33 -39 37 -92 40 -47 3 -66 0 -92 -17z
m123 -55 c51 -50 23 -145 -43 -145 -94 0 -88 165 6 169 7 1 24 -10 37 -24z"/>
<path d="M2414 1034 c-48 -23 -68 -69 -62 -139 4 -49 10 -63 36 -86 117 -105
298 33 227 172 -33 63 -130 88 -201 53z m99 -43 c71 -27 51 -161 -25 -161 -66
0 -94 95 -43 145 27 28 33 29 68 16z"/>
<path d="M2709 1035 c-71 -38 -73 -194 -4 -239 35 -23 96 -21 123 4 l22 21 0
-39 c0 -21 -5 -43 -12 -50 -16 -16 -73 -15 -87 2 -12 15 -91 27 -91 14 0 -21
25 -57 47 -67 13 -6 53 -11 89 -11 59 0 68 3 95 29 l29 29 0 161 0 161 -30 0
c-20 0 -30 -5 -30 -15 0 -19 -9 -19 -34 0 -25 19 -83 19 -117 0z m121 -55 c28
-28 27 -96 -2 -127 -45 -48 -98 -14 -98 64 0 76 54 109 100 63z"/>
<path d="M2980 915 l0 -135 35 0 35 0 0 135 0 135 -35 0 -35 0 0 -135z"/>
<path d="M3135 1017 c-81 -81 -45 -223 61 -243 55 -10 113 13 137 54 22 38 22
37 -19 45 -26 5 -33 2 -42 -19 -9 -19 -19 -24 -47 -24 -32 0 -38 4 -51 37 -26
62 2 133 52 133 13 0 29 -9 36 -20 13 -21 52 -26 77 -11 12 8 8 16 -21 45 -33
33 -41 36 -93 36 -51 0 -60 -3 -90 -33z"/>
<path d="M3408 1034 c-30 -16 -44 -51 -34 -89 7 -29 26 -40 102 -60 71 -18 86
-31 60 -51 -28 -20 -70 -17 -91 6 -19 21 -50 26 -73 12 -20 -13 23 -60 68 -73
110 -33 218 46 163 119 -14 19 -39 32 -83 44 -35 10 -68 22 -73 27 -28 28 52
44 82 17 11 -10 26 -12 51 -7 l35 7 -32 32 c-28 29 -37 32 -90 32 -32 -1 -70
-7 -85 -16z"/>
<path d="M45 605 c-19 -18 -25 -35 -25 -68 0 -56 30 -87 84 -87 56 0 76 15 76
55 0 33 -2 35 -35 35 -38 0 -47 -14 -14 -23 31 -8 17 -32 -21 -35 -24 -3 -38
2 -47 14 -42 58 25 136 76 90 12 -11 21 -12 31 -5 13 8 11 13 -9 29 -33 28
-86 26 -116 -5z"/>
<path d="M210 540 c0 -73 3 -90 15 -90 12 0 15 17 15 90 0 73 -3 90 -15 90
-12 0 -15 -17 -15 -90z"/>
<path d="M410 542 l0 -89 48 -1 c55 -1 82 18 82 57 0 15 -7 37 -16 50 -13 18
-23 22 -48 18 -29 -5 -32 -3 -31 21 0 17 -6 28 -17 30 -16 3 -18 -6 -18 -86z
m94 -14 c7 -28 -11 -60 -32 -56 -21 4 -30 67 -11 79 18 11 36 1 43 -23z"/>
<path d="M690 540 c0 -73 3 -90 15 -90 12 0 15 17 15 90 0 73 -3 90 -15 90
-12 0 -15 -17 -15 -90z"/>
<path d="M828 619 c-23 -13 -23 -52 -1 -70 9 -8 30 -18 46 -24 38 -12 45 -30
18 -45 -17 -8 -24 -7 -41 10 -18 18 -50 28 -50 14 0 -18 23 -43 47 -51 39 -13
75 -2 93 29 13 24 13 29 -4 47 -11 12 -37 26 -58 32 -23 6 -38 15 -35 22 5 15
57 22 57 8 0 -6 9 -11 20 -11 25 0 26 12 2 33 -21 19 -68 22 -94 6z"/>
<path d="M1110 540 c0 -83 1 -90 20 -90 19 0 20 7 20 90 0 83 -1 90 -20 90
-19 0 -20 -7 -20 -90z"/>
<path d="M1390 616 c0 -10 9 -16 21 -16 24 0 21 23 -4 28 -10 2 -17 -3 -17
-12z"/>
<path d="M1800 540 c0 -83 1 -90 20 -90 16 0 20 7 20 35 0 33 2 35 34 35 40 0
66 22 66 55 0 34 -36 55 -92 55 l-48 0 0 -90z m98 33 c3 -20 -1 -23 -27 -23
-27 0 -31 4 -31 26 0 22 4 25 28 22 19 -2 28 -9 30 -25z"/>
<path d="M2330 615 c0 -8 7 -15 15 -15 8 0 15 7 15 15 0 8 -7 15 -15 15 -8 0
-15 -7 -15 -15z"/>
<path d="M2470 600 c0 -28 -2 -30 -25 -24 -50 13 -84 -53 -55 -106 8 -16 21
-19 60 -19 l50 2 0 88 c0 72 -3 89 -15 89 -10 0 -15 -10 -15 -30z m-12 -52
c30 -30 -1 -94 -33 -68 -25 20 -13 80 15 80 3 0 11 -5 18 -12z"/>
<path d="M1335 612 c-20 -14 -37 -54 -27 -61 6 -3 12 -27 14 -51 3 -41 6 -45
31 -48 29 -4 37 12 12 22 -9 3 -15 19 -15 41 0 24 4 35 15 35 8 0 15 7 15 15
0 8 -6 15 -14 15 -8 0 -16 9 -18 20 -2 11 -7 16 -13 12z"/>
<path d="M2857 535 l-67 -85 168 0 168 0 60 72 c32 39 63 77 67 85 7 11 -23
13 -160 13 l-168 -1 -68 -84z"/>
<path d="M280 558 c-40 -43 -14 -108 44 -108 40 0 66 26 66 67 0 58 -69 85
-110 41z m78 -39 c3 -30 -18 -52 -42 -43 -16 6 -23 54 -9 68 16 16 48 1 51
-25z"/>
<path d="M573 573 c-17 -6 -17 -33 0 -33 7 0 18 5 24 11 6 6 16 8 22 5 19 -12
12 -24 -18 -31 -35 -8 -54 -27 -49 -52 3 -15 14 -18 58 -19 l55 -1 -4 56 c-1
31 -8 59 -15 63 -12 9 -54 9 -73 1z m57 -77 c0 -19 -17 -29 -37 -22 -12 5 -13
9 -3 21 16 19 40 19 40 1z"/>
<path d="M980 560 c-41 -41 -13 -110 45 -110 42 0 65 22 65 64 0 60 -68 88
-110 46z m78 -41 c3 -29 -18 -52 -41 -43 -38 14 -24 78 16 72 15 -2 23 -11 25
-29z"/>
<path d="M1177 573 c-11 -10 -8 -82 3 -103 8 -16 21 -19 60 -19 l50 2 0 63 c0
50 -3 64 -15 64 -11 0 -15 -11 -15 -39 0 -52 -8 -71 -31 -71 -16 0 -19 8 -19
55 0 39 -4 55 -13 55 -8 0 -17 -3 -20 -7z"/>
<path d="M1390 516 c0 -60 2 -66 20 -66 19 0 21 5 18 62 -2 50 -6 63 -20 66
-16 3 -18 -5 -18 -62z"/>
<path d="M1467 562 c-24 -26 -22 -88 2 -102 60 -32 120 8 106 70 -11 49 -75
68 -108 32z m71 -28 c20 -36 -15 -77 -44 -53 -15 12 -19 51 -7 62 12 13 42 7
51 -9z"/>
<path d="M1600 515 c0 -51 3 -65 15 -65 11 0 15 12 15 44 0 44 19 74 40 61 5
-3 10 -28 10 -56 0 -35 4 -49 14 -49 16 0 24 49 16 95 -6 33 -40 46 -66 25
-10 -9 -14 -9 -14 -1 0 6 -7 11 -15 11 -12 0 -15 -14 -15 -65z"/>
<path d="M1960 515 c0 -51 3 -65 15 -65 10 0 15 10 15 34 0 47 9 66 31 66 10
0 19 7 19 15 0 18 -21 20 -38 3 -9 -9 -12 -9 -12 0 0 7 -7 12 -15 12 -12 0
-15 -14 -15 -65z"/>
<path d="M2066 564 c-45 -44 -21 -114 39 -114 42 0 65 22 65 64 0 57 -66 89
-104 50z m72 -45 c3 -29 -18 -52 -41 -43 -36 14 -22 78 16 72 15 -2 23 -11 25
-29z"/>
<path d="M2180 577 c0 -2 11 -30 24 -63 32 -78 50 -78 82 0 28 70 28 66 9 66
-9 0 -24 -19 -34 -42 l-17 -42 -17 42 c-9 23 -24 42 -32 42 -8 0 -15 -1 -15
-3z"/>
<path d="M2330 515 c0 -51 3 -65 15 -65 12 0 15 14 15 65 0 51 -3 65 -15 65
-12 0 -15 -14 -15 -65z"/>
<path d="M2536 558 c-21 -30 -20 -71 2 -91 34 -31 115 -15 82 16 -10 9 -14 9
-17 0 -6 -18 -28 -16 -43 2 -11 13 -6 15 34 15 37 0 46 3 46 18 0 56 -73 84
-104 40z m62 -10 c18 -18 14 -28 -11 -28 -30 0 -40 10 -26 27 14 16 22 16 37
1z"/>
<path d="M2660 514 c0 -50 3 -64 15 -64 11 0 15 11 15 38 0 42 7 56 33 65 30
11 18 24 -23 24 l-40 0 0 -63z"/>
<path d="M155 143 c-44 -53 -88 -107 -98 -120 l-18 -23 1358 0 1358 0 80 97
c44 53 88 107 98 120 l18 23 -1358 0 -1358 0 -80 -97z"/>
</g>
</svg>
