<svg version="1.2" xmlns="http://www.w3.org/2000/svg" viewBox="0 0 1572 421" width="1572" height="421">
	<title>logo (32)-svg</title>
	<style>
		.s0 { fill: #231815 } 
		.s1 { fill: #fdd000 } 
		.s2 { fill: #6fba2c } 
		.s3 { fill: #37bef0 } 
		.s4 { fill: #00a33e } 
		.s5 { fill: #92ab23 } 
		.s6 { fill: #0068b7 } 
	</style>
	<path id="Layer" fill-rule="evenodd" class="s0" d="m1228.5 133.5q-2.9-1.9-5.4-4.3-2.6-2.5-4.6-5.3-2.1-2.9-3.5-6.1-1.5-3.2-2.4-6.6l27-3.9q0.3 1.7 0.9 3.3 0.6 1.6 1.5 3.1 0.9 1.5 2 2.8 1.2 1.3 2.5 2.3 1.7 1.1 3.4 1.9 1.8 0.8 3.7 1.3 1.9 0.5 3.8 0.7 2 0.2 3.9 0.1 2 0.1 4.1 0 2-0.2 4-0.7 2-0.4 3.9-1.2 1.9-0.8 3.6-1.8 0.9-0.6 1.6-1.3 0.6-0.8 1.1-1.7 0.5-1 0.7-2 0.2-1 0.2-2 0-0.7-0.1-1.3-0.1-0.7-0.4-1.4-0.2-0.6-0.6-1.2-0.4-0.6-0.8-1.1-1.1-0.6-2.1-1.2-1.1-0.5-2.2-0.9-1.2-0.5-2.3-0.8-1.2-0.3-2.4-0.5-32.5-6.9-41.2-12.6-2.8-1.8-5.1-4.2-2.3-2.4-3.8-5.4-1.6-2.9-2.4-6.1-0.8-3.3-0.7-6.6 0-3.1 0.7-6.2 0.7-3 2-5.8 1.4-2.9 3.3-5.3 2-2.4 4.4-4.3 10.4-8.8 32.3-8.8 20.8 0 30.9 6.6 2.5 1.7 4.7 3.9 2.2 2.1 4 4.6 1.8 2.5 3.1 5.3 1.3 2.8 2.1 5.8l-25.2 4.6q-0.4-1.4-0.9-2.6-0.6-1.3-1.4-2.4-0.8-1.2-1.8-2.1-0.9-1-2.1-1.8-1.4-0.9-3-1.5-1.6-0.6-3.2-1-1.7-0.4-3.4-0.5-1.7-0.2-3.4-0.1-1.9-0.1-3.9 0-1.9 0.1-3.8 0.5-1.9 0.3-3.8 0.9-1.9 0.7-3.6 1.5-0.7 0.4-1.3 1-0.5 0.6-0.9 1.3-0.4 0.6-0.6 1.4-0.2 0.8-0.2 1.6 0 0.7 0.2 1.4 0.1 0.7 0.5 1.3 0.3 0.6 0.8 1.2 0.5 0.5 1.1 0.9c2.4 1.7 10.7 4 25 7.3 14.4 3.3 24.4 7.1 30 11.7q2.1 1.8 3.8 4 1.6 2.2 2.7 4.7 1.1 2.6 1.6 5.3 0.5 2.7 0.3 5.4 0 3.4-0.8 6.7-0.7 3.3-2.2 6.4-1.6 3-3.7 5.6-2.2 2.7-4.9 4.7-11.7 9.8-34.5 9.8-4.2 0.2-8.5-0.2-4.3-0.4-8.5-1.4-4.1-1.1-8.1-2.7-4-1.7-7.6-3.9m-34.9-87.4q2.9 2.2 5.4 4.9 2.4 2.6 4.4 5.7 2 3 3.5 6.3 1.5 3.3 2.4 6.8l-26.5 4.7c-0.2-2.2-0.8-4.4-1.8-6.4-1-2-2.4-3.7-4.1-5.2-1.7-1.4-3.7-2.5-5.8-3.2-2.1-0.7-4.3-1-6.6-0.8q-2.2-0.1-4.4 0.3-2.3 0.4-4.3 1.3-2.1 0.9-4 2.2-1.8 1.3-3.3 3c-4 4.5-5.9 12-5.9 22.6 0 11.7 1.8 20 6 24.8q1.5 1.8 3.4 3.2 1.8 1.4 3.9 2.4 2.1 0.9 4.4 1.4 2.3 0.4 4.6 0.3 1.7 0.1 3.4-0.2 1.7-0.2 3.3-0.7 1.6-0.6 3.1-1.4 1.5-0.8 2.8-1.9 1.4-1.5 2.6-3.2 1.1-1.7 2-3.6 0.9-1.8 1.5-3.8 0.5-2 0.8-4l26.3 4.2q-0.7 3.9-2.1 7.6-1.4 3.8-3.4 7.2-2 3.4-4.6 6.4-2.6 3-5.6 5.5-3.4 2.4-7.2 4.2-3.7 1.8-7.7 2.9-4 1.2-8.1 1.7-4.1 0.4-8.3 0.2-4.8 0.2-9.7-0.5-4.8-0.8-9.4-2.6-4.5-1.7-8.6-4.4-4.1-2.6-7.6-6.1-13.2-13.4-13.2-37.9 0-24.5 13.3-38.2 3.5-3.4 7.7-6.1 4.2-2.7 8.8-4.4 4.7-1.8 9.6-2.5 4.9-0.8 9.8-0.5 3.9-0.2 7.7 0.1 3.9 0.4 7.6 1.4 3.8 1 7.3 2.5 3.6 1.6 6.9 3.7zm-119.5-5.6h26.9v99.1h-26.9zm0-37.6h26.9v24.1h-26.9zm-114 146c0-0.8 0-1.9 0-3.1l30.7 3.6q0 1 0.3 2 0.2 1 0.7 1.9 0.4 1 1 1.8 0.7 0.8 1.5 1.5 1.3 0.8 2.8 1.3 1.4 0.6 3 1 1.5 0.3 3.1 0.4 1.5 0.1 3.1 0 2 0.2 4 0 2.1-0.1 4.1-0.5 1.9-0.4 3.9-1 1.9-0.7 3.7-1.5 1-0.6 1.8-1.3 0.8-0.7 1.5-1.5 0.7-0.9 1.2-1.8 0.5-1 0.9-2 0.4-1.5 0.6-3 0.3-1.5 0.5-3 0.1-1.5 0.1-3 0.1-1.5 0-3v-14.7c-1.7 2.5-3.6 4.7-5.8 6.7-2.3 2-4.7 3.8-7.3 5.2-2.7 1.4-5.5 2.4-8.4 3.2-2.9 0.7-5.8 1-8.8 1-3.2 0.1-6.4-0.2-9.5-0.9-3.1-0.7-6.1-1.8-8.9-3.3-2.8-1.5-5.4-3.3-7.8-5.4-2.3-2.1-4.4-4.6-6.2-7.2q-2.4-3.7-4.2-7.7-1.9-3.9-3.1-8.2-1.2-4.2-1.7-8.5-0.5-4.4-0.4-8.8 0-24.8 12.3-37.9 2.9-3.2 6.4-5.7 3.5-2.5 7.5-4.2 3.9-1.7 8.1-2.5 4.2-0.8 8.5-0.7c3.1 0 6.1 0.3 9 1 3 0.7 5.8 1.8 8.5 3.2 2.7 1.4 5.2 3.1 7.5 5.1 2.3 2 4.3 4.2 6 6.7v-13.8h25.3v88.8q0.1 3.3 0 6.6-0.1 3.3-0.5 6.6-0.4 3.3-1 6.6-0.6 3.2-1.5 6.4-0.6 1.9-1.5 3.8-0.8 1.8-1.9 3.5-1 1.7-2.3 3.3-1.3 1.6-2.7 2.9-1.6 1.4-3.2 2.6-1.7 1.2-3.5 2.1-1.8 1-3.7 1.8-1.9 0.7-3.9 1.3-2.7 0.8-5.5 1.3-2.8 0.6-5.7 0.9-2.8 0.4-5.6 0.5-2.9 0.2-5.7 0.1c-17.3 0-29.5-2.7-36.6-8.4q-2.6-1.9-4.6-4.4-2-2.4-3.4-5.3-1.4-2.8-2.1-5.9-0.7-3.1-0.7-6.3zm23.9-61c0 10.5 2 18.3 6.2 23.1q1.4 1.7 3.2 3.1 1.7 1.4 3.7 2.3 2.1 1 4.2 1.4 2.2 0.5 4.4 0.5 2.4 0 4.7-0.4 2.3-0.5 4.4-1.5 2.2-1 4.1-2.4 1.9-1.4 3.4-3.2 1.8-2.3 3.2-5 1.4-2.6 2.3-5.5 0.9-2.8 1.2-5.8 0.3-2.9 0.1-5.9 0.2-3-0.1-6-0.3-3.1-1.1-6-0.8-2.9-2.2-5.7-1.3-2.7-3.1-5.1-1.5-1.8-3.4-3.3-1.9-1.4-4-2.3-2.1-1-4.4-1.5-2.3-0.4-4.7-0.4-2.2 0-4.5 0.4-2.2 0.5-4.3 1.4-2 1-3.8 2.4-1.8 1.4-3.3 3.1c-4.1 4.9-6.2 11.9-6.2 22.3zm-135.6 22.6q-1.3-3.6-2.1-7.2-0.8-3.7-1.2-7.4-0.3-3.7-0.2-7.5 0-3.3 0.4-6.6 0.4-3.2 1.3-6.4 0.8-3.2 2-6.3 1.2-3.1 2.8-6 1.6-2.9 3.6-5.6 2-2.7 4.4-5.1 2.3-2.4 5-4.4 2.7-1.9 5.7-3.5 3.1-1.6 6.4-2.8 3.3-1.3 6.7-2.1 3.4-0.8 6.9-1.2 3.5-0.4 7-0.3 5.2-0.2 10.4 0.7 5.1 0.8 10 2.7 4.8 1.9 9.2 4.7 4.4 2.8 8.1 6.5 3.6 3.6 6.5 7.8 2.8 4.3 4.7 9 1.9 4.8 2.8 9.8 0.9 5.1 0.7 10.2c0.2 6.9-1 13.8-3.5 20.2-2.6 6.4-6.5 12.2-11.4 17.1-4.9 4.9-10.7 8.7-17.1 11.2-6.5 2.5-13.3 3.7-20.2 3.5q-3.5 0-6.9-0.4-3.4-0.4-6.8-1.2-3.3-0.7-6.6-1.9-3.2-1.2-6.3-2.7-3-1.4-5.8-3.3-2.8-1.9-5.3-4.2-2.4-2.2-4.5-4.9-2-2.6-3.7-5.6-1.7-3.3-3-6.8zm25.8-32.5c-1.2 3.8-1.8 7.8-1.8 11.8 0 4 0.6 8 1.8 11.8 1.3 3.8 3 7.4 5.3 10.7q1.7 1.9 3.7 3.4 2 1.5 4.3 2.5 2.3 1 4.8 1.5 2.4 0.5 4.9 0.4 2.5 0.1 4.9-0.4 2.5-0.5 4.8-1.5 2.2-1.1 4.2-2.5 2-1.5 3.7-3.4 1.9-2.4 3.3-5.1 1.5-2.7 2.4-5.6 0.9-2.9 1.3-5.9 0.3-3.1 0.1-6.1 0.2-3-0.1-6-0.4-3-1.3-5.9-0.9-2.8-2.4-5.5-1.4-2.6-3.3-5-1.7-1.9-3.7-3.3-2-1.5-4.2-2.5-2.3-1.1-4.8-1.6-2.4-0.4-4.9-0.4-2.5 0-4.9 0.4-2.5 0.5-4.8 1.6-2.3 1-4.3 2.5-2 1.4-3.7 3.3c-2.3 3.3-4 6.9-5.3 10.8zm-69.6-75.3h26.8v136.6h-26.8zm-113.9 107.8q-1.3-3.5-2.1-7.2-0.9-3.7-1.2-7.4-0.4-3.7-0.3-7.5 0-3.3 0.5-6.6 0.4-3.2 1.2-6.4 0.9-3.2 2.1-6.3 1.2-3.1 2.8-5.9 1.6-3 3.6-5.7 1.9-2.7 4.3-5.1 2.4-2.4 5.1-4.3 2.7-2 5.6-3.6 3.2-1.6 6.4-2.8 3.3-1.2 6.8-2.1 3.4-0.8 6.9-1.1 3.4-0.4 7-0.4 5.2-0.2 10.3 0.7 5.1 0.8 10 2.7 4.8 1.9 9.2 4.7 4.4 2.8 8.1 6.5 3.7 3.6 6.5 7.8 2.8 4.3 4.7 9.1 1.9 4.7 2.8 9.8 0.9 5 0.8 10.1c0.1 6.9-1.1 13.8-3.6 20.2-2.6 6.4-6.4 12.2-11.3 17.1-4.9 4.9-10.8 8.7-17.2 11.2-6.4 2.5-13.3 3.7-20.2 3.5q-3.4 0-6.8-0.4-3.5-0.4-6.8-1.2-3.4-0.7-6.6-1.9-3.3-1.1-6.3-2.7-3.1-1.4-5.8-3.3-2.8-1.9-5.3-4.1-2.4-2.3-4.5-5-2-2.6-3.7-5.6-1.7-3.3-3-6.8zm25.7-32.5c-1.2 3.8-1.8 7.8-1.8 11.8 0 4 0.6 8 1.8 11.8 1.3 3.8 3 7.5 5.4 10.7 2.2 2.5 4.9 4.4 8 5.8 3 1.3 6.3 2 9.6 2 3.3 0 6.6-0.7 9.7-2 3-1.4 5.7-3.3 8-5.8q1.9-2.4 3.3-5.1 1.4-2.7 2.4-5.6 0.9-2.9 1.2-5.9 0.4-3.1 0.2-6.1 0.2-3-0.2-6-0.3-3-1.3-5.9-0.9-2.8-2.3-5.5-1.4-2.6-3.3-5c-2.3-2.4-5-4.4-8-5.7-3.1-1.4-6.4-2.1-9.7-2.1-3.3 0-6.6 0.7-9.6 2.1-3.1 1.3-5.8 3.3-8 5.7-2.4 3.3-4.1 6.9-5.4 10.8zm-42.7 61.3h-26.9v-99h26.9zm0-112.5h-26.9v-24.1h26.9zm-160-24.1h56.1q3.1-0.1 6.2-0.1 3.1 0.1 6.2 0.2 3.1 0.2 6.2 0.5 3.1 0.3 6.2 0.8 1.9 0.2 3.8 0.7 1.9 0.5 3.8 1.2 1.8 0.7 3.5 1.6 1.8 0.9 3.4 2 1.7 1.1 3.2 2.4 1.5 1.2 2.8 2.7 1.4 1.4 2.6 3 1.2 1.6 2.2 3.3 1 1.8 1.8 3.8 0.9 1.9 1.4 3.9 0.5 2.1 0.8 4.1 0.2 2.1 0.2 4.2 0 2.4-0.3 4.7-0.4 2.3-1 4.5-0.7 2.3-1.7 4.4-1 2.1-2.3 4.1-1.3 1.9-2.9 3.7-1.6 1.8-3.4 3.3-1.8 1.5-3.8 2.8-2.1 1.2-4.2 2.2 2.8 0.7 5.6 1.8 2.7 1.2 5.2 2.7 2.5 1.6 4.7 3.6 2.2 1.9 4.1 4.2 1.7 2.2 3 4.7 1.3 2.4 2.2 5 0.9 2.7 1.3 5.4 0.4 2.7 0.4 5.5 0 2.4-0.3 4.7-0.3 2.3-0.9 4.6-0.5 2.3-1.4 4.5-0.8 2.2-1.9 4.3-1 2.1-2.3 4.1-1.3 2-2.8 3.8-1.5 1.8-3.3 3.3-1.7 1.6-3.7 2.9-2.1 1.4-4.4 2.5-2.3 1.1-4.7 1.9-2.4 0.8-4.8 1.4-2.5 0.5-5 0.7c-4.6 0.5-16 1-34.1 1h-47.7zm28.2 22.6v31.6h18.5c11.1 0 17.9-0.1 20.6-0.4q1.6-0.1 3.1-0.5 1.6-0.4 3-1 1.5-0.6 2.8-1.5 1.3-0.9 2.5-1.9 1-1.1 1.9-2.3 0.8-1.2 1.3-2.6 0.6-1.4 0.8-2.8 0.3-1.5 0.2-3 0.1-1.4-0.1-2.7-0.2-1.4-0.7-2.7-0.4-1.4-1.1-2.6-0.7-1.2-1.6-2.3-1.1-1-2.3-1.9-1.3-0.8-2.6-1.4-1.4-0.6-2.8-1-1.5-0.3-3-0.4c-2.8-0.6-10.8-0.6-24.2-0.6zm0.3 54.4v36.5h26.1q2.5 0.1 4.9 0.1 2.4 0 4.9-0.1 2.4-0.2 4.8-0.3 2.4-0.2 4.8-0.5 1.5-0.3 2.9-0.7 1.4-0.5 2.7-1.2 1.3-0.7 2.5-1.6 1.2-0.8 2.2-1.9 1-1.2 1.8-2.6 0.8-1.4 1.3-2.9 0.5-1.5 0.7-3.1 0.2-1.6 0.1-3.2 0.1-1.3-0.1-2.7-0.2-1.4-0.6-2.7-0.4-1.3-0.9-2.5-0.6-1.3-1.4-2.4-0.8-1.1-1.8-2.1-1-0.9-2.1-1.7-1.2-0.8-2.4-1.4-1.2-0.6-2.5-1-3.1-0.7-6.3-1.1-3.1-0.5-6.3-0.7-3.2-0.3-6.3-0.3-3.2 0-6.4 0.1zm-121.7-39.4h26.9v99h-26.9zm0-37.6h26.9v24.1h-26.9zm-136.4 136.6l47.5-71.3-43.3-65.3h33.1l28.1 43.9 27.5-43.9h32.7l-43.5 66.4 47.8 70.2h-34.1l-31-47.2-31.1 47.2zm-31-0.1v-14.9q-1.4 2-3 3.8-1.7 1.9-3.5 3.5-1.9 1.6-3.9 2.9-2 1.4-4.2 2.4-2.2 1.2-4.5 2-2.3 0.9-4.7 1.4-2.5 0.6-4.9 0.9-2.5 0.3-4.9 0.3-2.4 0-4.8-0.2-2.4-0.2-4.7-0.8-2.3-0.5-4.5-1.3-2.3-0.8-4.4-1.9-1.9-1-3.6-2.3-1.8-1.3-3.3-2.9-1.5-1.5-2.7-3.3-1.2-1.8-2.1-3.7-1-2.7-1.8-5.4-0.7-2.7-1.2-5.5-0.4-2.8-0.6-5.6-0.2-2.8 0-5.6v-62.7h26.8v45.5q-0.2 3.2-0.2 6.4 0.1 3.2 0.2 6.4 0.2 3.2 0.6 6.4 0.4 3.2 0.9 6.4 0.3 1.1 0.8 2.2 0.5 1 1.2 2 0.7 0.9 1.6 1.7 0.8 0.9 1.8 1.5 1.1 0.7 2.3 1.3 1.2 0.5 2.4 0.9 1.3 0.3 2.6 0.5 1.3 0.1 2.6 0.1 1.6 0 3.3-0.2 1.6-0.3 3.1-0.7 1.6-0.5 3.1-1.2 1.4-0.7 2.8-1.6 1.3-0.8 2.4-1.8 1.1-1 2-2.2 1-1.1 1.8-2.4 0.7-1.3 1.2-2.7 0.7-3.3 1.2-6.6 0.5-3.4 0.7-6.7 0.3-3.4 0.3-6.7 0.1-3.4-0.1-6.7v-41.8h26.7v99zm-219.8 0.2l-33.4-136.7h28.9l21 93.8 25.6-93.8h33.7l24.5 95.4 21.4-95.4h28.5l-34 136.7h-30l-27.8-102.2-27.8 102.2z"/>
	<path id="Layer" class="s1" d="m1434.1 0h137.5l-213.5 259h-137.6l213.6-259z"/>
	<path id="Layer" class="s2" d="m1057.1 194.2h354.3l-53.2 64.8h-354.5l53.4-64.8z"/>
	<path id="Layer" class="s3" d="m1057.1 194.2h124.8l-187 226.6h-124.8l187-226.6z"/>
	<path id="Layer" class="s4" d="m1128.4 259h-124.7l53.4-64.8h124.8l-53.5 64.8z"/>
	<path id="Layer" class="s5" d="m1411.4 194.2l-16.6 20.3-36.7 44.5h-137.6l53.4-64.8h137.5z"/>
	<path id="Layer" class="s6" d="m8.2 420.8l72.1-86.8h986.3l-72.2 86.8h-986.2z"/>
	<path id="Layer" class="s0" d="m34.2 234.2v-10.9h28.6v26.1q-1.3 1.1-2.7 2.2-1.5 1-3 1.9-1.5 0.9-3.1 1.7-1.6 0.7-3.3 1.3-1.9 0.8-3.9 1.3-2 0.6-4 1-2 0.4-4.1 0.6-2 0.2-4.1 0.1-2.3 0.1-4.6-0.1-2.3-0.3-4.6-0.8-2.3-0.5-4.5-1.4-2.1-0.8-4.2-1.9-1.9-1-3.6-2.3-1.6-1.3-3.1-2.9-1.5-1.5-2.7-3.3-1.2-1.8-2.1-3.7-1-2.1-1.7-4.2-0.8-2.2-1.2-4.4-0.5-2.2-0.7-4.4-0.3-2.3-0.3-4.6 0-2.3 0.2-4.7 0.3-2.3 0.8-4.7 0.5-2.3 1.3-4.5 0.9-2.2 2-4.3 1-2 2.3-3.8 1.4-1.8 3-3.3 1.6-1.6 3.4-2.9 1.9-1.3 3.9-2.3 1.8-0.8 3.7-1.5 2-0.6 4-1 1.9-0.5 4-0.6 2-0.2 4-0.1 2.5-0.2 5.1 0 2.5 0.3 4.9 0.9 2.4 0.6 4.8 1.7 2.3 1 4.4 2.4 1.7 1.2 3.2 2.8 1.4 1.6 2.6 3.4 1.1 1.8 1.9 3.8 0.8 2 1.1 4.1l-13.1 2.5q-0.3-1.1-0.8-2.2-0.5-1.1-1.2-2-0.7-1-1.5-1.9-0.8-0.8-1.8-1.5-1-0.7-2.2-1.3-1.1-0.5-2.3-0.9-1.2-0.4-2.5-0.5-1.3-0.2-2.5-0.1-2-0.1-3.9 0.2-1.9 0.3-3.6 1-1.8 0.7-3.4 1.8-1.6 1.1-2.9 2.5-1.4 1.7-2.5 3.6-1.1 1.9-1.7 4-0.7 2.1-1 4.3-0.3 2.2-0.1 4.4-0.2 2.4 0.1 4.7 0.2 2.3 0.9 4.6 0.7 2.2 1.7 4.3 1.1 2.1 2.5 4 1.3 1.4 2.8 2.5 1.6 1.2 3.4 1.9 1.7 0.8 3.6 1.1 1.9 0.4 3.9 0.3 1 0 2.1-0.1 1.1-0.1 2.1-0.3 1.1-0.2 2.1-0.5 1.1-0.3 2.1-0.7 0.9-0.4 1.9-0.9 0.9-0.4 1.8-1 0.9-0.5 1.8-1.1 0.8-0.6 1.6-1.2v-8.5z"/>
	<path id="Layer" class="s0" d="m71.3 258.5v-65.9h12.6v65.8z"/>
	<path id="Layer" fill-rule="evenodd" class="s0" d="m90.1 233.9q0.1-1.5 0.3-3.1 0.2-1.6 0.6-3.1 0.4-1.6 0.9-3 0.6-1.5 1.4-2.9 0.7-1.4 1.7-2.7 0.9-1.3 2-2.4 1.1-1.2 2.4-2.1 1.2-1 2.6-1.7 1.5-0.8 3-1.4 1.5-0.6 3.1-1 1.6-0.4 3.3-0.6 1.6-0.2 3.2-0.2 2.5 0 4.9 0.4 2.4 0.4 4.7 1.3 2.3 0.9 4.3 2.2 2.1 1.4 3.8 3.1c2.2 2.4 4 5.2 5.1 8.3 1.2 3 1.8 6.3 1.8 9.5 0 3.3-0.6 6.5-1.8 9.6-1.1 3-2.9 5.8-5.1 8.2q-1.7 1.8-3.7 3.2-2 1.4-4.3 2.3-2.3 0.9-4.7 1.3-2.4 0.4-4.9 0.4-1.6 0-3.2-0.2-1.7-0.2-3.3-0.5-1.6-0.4-3.1-0.9-1.5-0.6-3-1.3-1.4-0.7-2.7-1.7-1.3-0.9-2.5-2-1.1-1.1-2.1-2.4-0.9-1.2-1.7-2.6-0.8-1.6-1.4-3.3-0.6-1.7-0.9-3.5-0.4-1.8-0.6-3.6-0.1-1.7-0.1-3.6zm13.2 0.8q-0.1 1.4 0.1 2.9 0.1 1.4 0.5 2.8 0.5 1.4 1.1 2.7 0.7 1.3 1.6 2.4 0.8 0.9 1.7 1.6 1 0.7 2.1 1.2 1.1 0.5 2.3 0.7 1.1 0.3 2.3 0.2 1.2 0.1 2.4-0.2 1.2-0.2 2.3-0.7 1-0.4 2-1.2 1-0.7 1.7-1.6 0.9-1.1 1.6-2.4 0.7-1.3 1.1-2.8 0.5-1.4 0.6-2.8 0.2-1.5 0.1-3 0.1-1.4-0.1-2.8-0.1-1.5-0.6-2.8-0.4-1.4-1.1-2.7-0.7-1.2-1.6-2.4-0.7-0.9-1.7-1.6-0.9-0.7-2-1.2-1.1-0.5-2.3-0.8-1.2-0.2-2.4-0.1-1.2-0.1-2.4 0.2-1.1 0.2-2.2 0.7-1.1 0.5-2.1 1.2-0.9 0.7-1.7 1.6-0.9 1.2-1.6 2.5-0.6 1.3-1.1 2.6-0.4 1.4-0.6 2.9-0.1 1.4 0 2.9z"/>
	<path id="Layer" fill-rule="evenodd" class="s0" d="m145 258.5v-65.9h12.6v23.6q1.3-1.5 2.8-2.8 1.6-1.2 3.4-2.1 1.8-0.8 3.7-1.3 2-0.4 4-0.4 2-0.1 4 0.3 2 0.4 3.8 1.2 1.9 0.8 3.5 2 1.7 1.2 3 2.7 1.6 1.9 2.7 4.1 1.2 2.2 2 4.5 0.7 2.4 1 4.8 0.3 2.5 0.2 4.9 0.1 2.5-0.2 5-0.3 2.5-1 5-0.7 2.4-1.9 4.6-1.2 2.2-2.7 4.2-1.3 1.6-2.9 2.8-1.6 1.2-3.4 2.1-1.9 0.8-3.8 1.3-2 0.4-4 0.4-1.1 0-2.1-0.2-1-0.1-2-0.3-1.1-0.3-2-0.6-1-0.4-1.9-0.9-1.1-0.5-2.1-1.2-1-0.6-1.9-1.4-0.9-0.7-1.6-1.6-0.8-0.8-1.5-1.8v7.1zm12.6-24.9q-0.1 1.4 0 2.8 0.1 1.4 0.4 2.8 0.3 1.4 0.8 2.7 0.4 1.4 1.1 2.6 0.7 1.2 1.6 2.1 0.9 0.9 2.1 1.6 1.1 0.6 2.4 1 1.3 0.3 2.6 0.3 1.1 0 2.1-0.2 1-0.3 1.9-0.7 1-0.5 1.7-1.2 0.8-0.6 1.4-1.5 0.9-1.2 1.5-2.5 0.6-1.4 1-2.8 0.3-1.4 0.5-2.9 0.1-1.5 0-3 0.1-1.5 0-3-0.2-1.6-0.5-3.1-0.4-1.5-1-2.9-0.6-1.4-1.5-2.7-0.6-0.9-1.5-1.6-0.8-0.6-1.8-1.1-1-0.5-2.1-0.7-1-0.2-2.1-0.2-1.1 0-2.2 0.2-1 0.2-2 0.7-1 0.4-1.8 1.1-0.9 0.6-1.6 1.5-0.8 1.1-1.4 2.4-0.7 1.3-1.1 2.6-0.4 1.4-0.5 2.8-0.2 1.4-0.1 2.9z"/>
	<path id="Layer" fill-rule="evenodd" class="s0" d="m207.3 225.3l-11.4-2q0.3-1.5 0.9-3 0.6-1.4 1.4-2.7 0.9-1.3 1.9-2.5 1.1-1.1 2.4-2 1.5-1 3.2-1.7 1.7-0.6 3.5-1.1 1.8-0.4 3.6-0.5 1.8-0.2 3.6-0.1 1.7 0 3.3 0 1.6 0.1 3.2 0.4 1.6 0.2 3.1 0.6 1.6 0.4 3.1 1 0.9 0.4 1.7 0.9 0.8 0.6 1.5 1.2 0.8 0.7 1.4 1.4 0.6 0.8 1.1 1.6 0.6 1.4 0.9 2.7 0.4 1.4 0.6 2.9 0.2 1.4 0.3 2.8 0 1.5-0.1 2.9v14.7q0 1.2 0 2.3 0 1.2 0.1 2.4 0.1 1.1 0.2 2.3 0.1 1.1 0.3 2.3 0.2 0.8 0.4 1.6 0.3 0.9 0.6 1.7 0.3 0.8 0.6 1.6 0.3 0.8 0.7 1.5h-12.6c-0.3-0.9-0.8-2.2-1.2-3.8q-0.1-0.2-0.1-0.4-0.1-0.2-0.1-0.3-0.1-0.2-0.2-0.4 0-0.2-0.1-0.3-0.8 0.7-1.6 1.4-0.8 0.6-1.7 1.2-0.8 0.6-1.8 1.1-0.9 0.6-1.8 1-1 0.4-1.9 0.6-1 0.3-2 0.5-1 0.2-2 0.3-1 0.1-2 0.1-1.5 0-3.1-0.2-1.5-0.2-3-0.7-1.5-0.5-2.9-1.2-1.3-0.8-2.5-1.8-1.7-1.7-2.7-3.8-1.1-2.2-1.4-4.5-0.3-2.4 0.1-4.7 0.5-2.3 1.7-4.4 0.4-0.8 1-1.5 0.6-0.7 1.3-1.3 0.7-0.6 1.5-1.1 0.7-0.5 1.6-0.9 1.2-0.5 2.4-1 1.2-0.4 2.5-0.8 1.3-0.3 2.5-0.6 1.3-0.3 2.6-0.5 1.6-0.3 3.1-0.6 1.5-0.3 3.1-0.7 1.5-0.4 3-0.8 1.5-0.5 3-1v-1.2q0.1-0.7 0-1.4-0.1-0.7-0.3-1.3-0.2-0.7-0.6-1.3-0.4-0.6-0.9-1.1-0.7-0.5-1.5-0.8-0.9-0.3-1.7-0.5-0.9-0.2-1.8-0.3-0.9 0-1.7 0.1-0.7-0.1-1.4 0-0.7 0-1.3 0.2-0.7 0.1-1.3 0.4-0.7 0.3-1.3 0.6-0.5 0.5-0.9 1-0.5 0.5-0.9 1.1-0.4 0.5-0.7 1.1-0.3 0.7-0.5 1.3zm16.8 10.2q-0.9 0.3-1.8 0.6-1 0.3-2 0.5-0.9 0.3-1.9 0.5-0.9 0.2-1.9 0.4-0.9 0.1-1.8 0.3-0.9 0.3-1.7 0.5-0.9 0.3-1.8 0.6-0.8 0.4-1.6 0.8-0.6 0.3-1 0.8-0.5 0.5-0.8 1.1-0.3 0.6-0.5 1.2-0.1 0.7-0.2 1.3 0 0.7 0.2 1.3 0.1 0.6 0.4 1.2 0.2 0.6 0.6 1.1 0.4 0.6 0.8 1 0.5 0.5 1.1 0.8 0.6 0.4 1.3 0.7 0.6 0.2 1.3 0.3 0.7 0.1 1.4 0.1 0.8 0 1.7-0.1 0.9-0.2 1.7-0.5 0.8-0.2 1.6-0.7 0.8-0.4 1.5-0.9 0.5-0.4 1-0.9 0.4-0.4 0.8-1 0.4-0.5 0.7-1.1 0.3-0.6 0.5-1.2 0.1-0.8 0.2-1.5 0.1-0.8 0.2-1.6 0.1-0.7 0.1-1.5 0-0.8-0.1-1.6z"/>
	<path id="Layer" class="s0" d="m245.3 258.5v-65.9h12.6v65.8z"/>
	<path id="Layer" class="s0" d="m285.7 237l12.9-1.2q0.2 1.4 0.6 2.7 0.4 1.3 1 2.5 0.6 1.2 1.4 2.3 0.8 1.1 1.8 2.1 1 0.8 2.1 1.4 1.2 0.6 2.4 1 1.2 0.3 2.5 0.5 1.3 0.2 2.6 0.1 1.3 0.1 2.5-0.1 1.3-0.1 2.6-0.4 1.2-0.4 2.4-0.9 1.1-0.6 2.2-1.3 0.7-0.6 1.3-1.3 0.6-0.7 1-1.5 0.4-0.8 0.6-1.7 0.3-0.9 0.3-1.9 0-0.5-0.1-1-0.1-0.5-0.2-1.1-0.2-0.5-0.5-0.9-0.2-0.5-0.5-0.9-0.5-0.5-1.1-1-0.5-0.4-1.1-0.8-0.6-0.3-1.3-0.6-0.6-0.3-1.3-0.5c-1.6-0.5-5.2-1.5-10.7-2.8q-2-0.4-4-1-1.9-0.6-3.8-1.4-1.9-0.9-3.7-1.9-1.8-1-3.5-2.2-1.4-1.3-2.5-2.8-1.2-1.5-2-3.2-0.7-1.7-1.1-3.5-0.4-1.9-0.4-3.7 0-1.3 0.2-2.5 0.2-1.3 0.5-2.5 0.4-1.2 0.9-2.3 0.5-1.2 1.2-2.2 0.8-1.1 1.7-2.1 1-1 2-1.9 1.1-0.8 2.3-1.5 1.2-0.7 2.5-1.2 1.5-0.6 3.1-1 1.6-0.5 3.2-0.7 1.7-0.3 3.3-0.5 1.7-0.1 3.3 0 2.5-0.2 5 0 2.4 0.3 4.8 1 2.4 0.7 4.6 1.8 2.3 1.1 4.3 2.6 1.5 1.3 2.7 3 1.2 1.6 2.1 3.5 0.8 1.9 1.3 3.9 0.4 2 0.4 4l-13.3 0.7q-0.1-1.1-0.4-2.1-0.3-1-0.7-1.9-0.5-0.9-1.1-1.8-0.6-0.8-1.4-1.5-0.9-0.6-1.9-1.1-1-0.4-2.1-0.7-1.1-0.3-2.2-0.4-1.1-0.1-2.2 0-1.2-0.1-2.4 0-1.2 0.1-2.3 0.4-1.2 0.3-2.3 0.8-1.1 0.5-2.1 1.1-0.5 0.4-0.9 0.8-0.4 0.5-0.7 1.1-0.2 0.5-0.4 1.1-0.1 0.6-0.1 1.3 0 0.5 0.2 1.1 0.1 0.6 0.4 1.1 0.2 0.5 0.6 1 0.4 0.4 0.8 0.8 1.4 0.8 2.9 1.4 1.5 0.7 3 1.2 1.6 0.6 3.1 1 1.6 0.3 3.2 0.6 1.9 0.4 3.7 0.9 1.8 0.5 3.6 1.1 1.8 0.6 3.6 1.3 1.7 0.7 3.4 1.5 1.1 0.5 2.2 1.2 1 0.8 1.9 1.6 0.9 0.9 1.7 1.8 0.8 1 1.4 2.1 0.7 1.1 1.3 2.4 0.5 1.3 0.8 2.6 0.4 1.3 0.5 2.7 0.2 1.3 0.1 2.7 0 1.4-0.2 2.8-0.2 1.4-0.6 2.7-0.4 1.4-1 2.7-0.6 1.2-1.3 2.4-0.8 1.2-1.8 2.3-1 1.1-2.1 2.1-1.1 0.9-2.4 1.7-1.3 0.7-2.6 1.2-1.7 0.7-3.5 1.1-1.8 0.5-3.6 0.8-1.8 0.3-3.6 0.4-1.8 0.1-3.6 0.1-2.6 0.2-5.1-0.1-2.6-0.3-5-1-2.5-0.8-4.7-2-2.3-1.1-4.3-2.7-1.8-1.6-3.3-3.5-1.4-1.9-2.5-4.1-1.1-2.1-1.7-4.5-0.6-2.3-0.8-4.7z"/>
	<path id="Layer" fill-rule="evenodd" class="s0" d="m343.7 233.9q0-1.5 0.2-3.1 0.2-1.6 0.6-3.1 0.3-1.6 0.9-3 0.6-1.5 1.3-2.9 0.8-1.4 1.7-2.7 0.9-1.3 2-2.4 1.2-1.2 2.4-2.1 1.3-1 2.7-1.7 1.4-0.8 3-1.4 1.5-0.6 3.1-1 1.6-0.4 3.2-0.6 1.7-0.2 3.3-0.2 2.5 0 4.9 0.4 2.4 0.4 4.7 1.3 2.3 0.9 4.4 2.2 2 1.4 3.7 3.1c2.2 2.4 4 5.2 5.2 8.3 1.1 3 1.7 6.3 1.7 9.5 0 3.3-0.6 6.5-1.7 9.6-1.2 3-3 5.8-5.2 8.2q-1.7 1.8-3.7 3.2-2 1.3-4.3 2.3-2.2 0.9-4.6 1.3-2.4 0.4-4.9 0.4-1.6 0-3.2-0.2-1.7-0.2-3.3-0.5-1.6-0.4-3.1-0.9-1.5-0.6-3-1.3-1.4-0.7-2.8-1.6-1.3-0.9-2.4-2-1.2-1.2-2.1-2.4-1-1.3-1.7-2.7-0.8-1.6-1.4-3.3-0.6-1.7-1-3.5-0.4-1.8-0.5-3.6-0.2-1.7-0.1-3.6zm12.8 0.7q-0.1 1.5 0.1 2.9 0.2 1.5 0.6 2.9 0.4 1.4 1.1 2.7 0.7 1.2 1.6 2.4 0.8 0.9 1.8 1.6 0.9 0.7 2 1.2 1.1 0.5 2.3 0.7 1.1 0.2 2.3 0.2 1.2 0 2.4-0.2 1.2-0.2 2.3-0.7 1.1-0.5 2-1.2 1-0.7 1.7-1.6 1-1.2 1.6-2.5 0.7-1.3 1.2-2.7 0.4-1.4 0.6-2.9 0.1-1.4 0-2.9 0.1-1.4-0.1-2.9-0.1-1.4-0.6-2.8-0.4-1.3-1.1-2.6-0.7-1.3-1.6-2.4-0.7-0.9-1.7-1.7-0.9-0.7-2-1.2-1.1-0.5-2.3-0.7-1.2-0.2-2.4-0.2-1.2 0-2.3 0.2-1.2 0.2-2.3 0.7-1.1 0.5-2.1 1.3-0.9 0.7-1.7 1.6-0.9 1.1-1.6 2.4-0.7 1.3-1.1 2.7-0.4 1.4-0.6 2.9-0.2 1.4-0.1 2.8z"/>
	<path id="Layer" class="s0" d="m399 258.5v-65.9h12.6v65.8z"/>
	<path id="Layer" class="s0" d="m452.2 258.5v-7q-0.7 0.9-1.4 1.8-0.8 0.8-1.7 1.6-0.9 0.8-1.8 1.4-1 0.7-2 1.2-1 0.5-2.1 0.9-1.1 0.5-2.2 0.7-1.2 0.3-2.3 0.4-1.2 0.2-2.4 0.1-1.1 0-2.1-0.1-1.1-0.1-2.2-0.4-1.1-0.2-2.1-0.6-1-0.4-2-0.9-0.9-0.5-1.7-1.1-0.8-0.6-1.5-1.4-0.8-0.8-1.3-1.6-0.6-0.9-1-1.8-0.5-1.3-0.8-2.6-0.4-1.3-0.6-2.6-0.2-1.3-0.2-2.7-0.1-1.3-0.1-2.7v-30.1h12.7v21.8q-0.1 1.6-0.1 3.1 0 1.5 0.1 3.1 0.1 1.5 0.2 3 0.2 1.6 0.4 3.1 0.2 0.6 0.4 1.1 0.3 0.5 0.6 1 0.3 0.4 0.7 0.8 0.4 0.4 0.9 0.8 0.5 0.3 1 0.6 0.6 0.2 1.2 0.4 0.6 0.2 1.2 0.2 0.6 0.1 1.3 0.1 0.7 0 1.5-0.1 0.8-0.1 1.5-0.3 0.7-0.3 1.4-0.6 0.7-0.4 1.3-0.8 0.6-0.4 1.1-0.8 0.5-0.5 1-1 0.4-0.6 0.8-1.2 0.4-0.6 0.6-1.2 0.4-1.6 0.6-3.2 0.2-1.6 0.3-3.2 0.1-1.6 0.2-3.2 0-1.7-0.1-3.3v-20.1h12.6v47.8z"/>
	<path id="Layer" class="s0" d="m495 210.8v10h-8.4v19.3q0 0.8 0 1.7 0 0.8 0 1.7 0 0.8 0.1 1.7 0.1 0.8 0.1 1.6 0.1 0.3 0.2 0.5 0.1 0.2 0.3 0.4 0.1 0.2 0.3 0.4 0.2 0.2 0.4 0.3 0.2 0.2 0.5 0.3 0.2 0.2 0.5 0.3 0.2 0 0.5 0.1 0.3 0 0.6 0 0.6-0.1 1.3-0.2 0.6-0.1 1.2-0.2 0.7-0.2 1.3-0.4 0.6-0.2 1.2-0.5l1.1 9.8q-1.2 0.5-2.4 0.9-1.2 0.3-2.5 0.6-1.2 0.2-2.5 0.3-1.3 0.1-2.5 0.1-0.8 0-1.6-0.1-0.8 0-1.6-0.2-0.7-0.1-1.5-0.3-0.8-0.2-1.5-0.5-0.6-0.2-1.2-0.5-0.6-0.3-1.1-0.7-0.5-0.4-1-0.9-0.5-0.4-0.9-0.9-0.3-0.6-0.6-1.2-0.3-0.6-0.5-1.2-0.3-0.6-0.4-1.3-0.1-0.6-0.2-1.2-0.2-1.1-0.3-2.2-0.1-1.2-0.1-2.3-0.1-1.1-0.1-2.2 0-1.1 0.1-2.2v-20.8h-5.8v-10h5.6v-9.4l12.7-7.4v16.8z"/>
	<path id="Layer" class="s0" d="m500.1 204.3v-11.7h12.7v11.5zm0 54.3v-47.8h12.6v47.8z"/>
	<path id="Layer" fill-rule="evenodd" class="s0" d="m519 233.9q0-1.5 0.3-3.1 0.2-1.6 0.5-3.1 0.4-1.6 1-3 0.6-1.5 1.4-2.9 0.7-1.4 1.6-2.7 1-1.3 2.1-2.4 1.1-1.2 2.4-2.1 1.2-1 2.7-1.7 1.4-0.8 2.9-1.4 1.6-0.6 3.2-1 1.6-0.4 3.2-0.6 1.6-0.2 3.3-0.2 2.4 0 4.9 0.4 2.4 0.4 4.7 1.3 2.2 0.9 4.3 2.2 2.1 1.4 3.8 3.1c2.2 2.4 4 5.2 5.1 8.3 1.2 3 1.8 6.3 1.8 9.5 0 3.3-0.6 6.5-1.8 9.6-1.1 3-2.9 5.8-5.1 8.2q-1.7 1.8-3.7 3.2-2.1 1.4-4.3 2.3-2.3 0.9-4.7 1.3-2.4 0.4-4.9 0.4-1.6 0-3.2-0.2-1.6-0.1-3.2-0.5-1.6-0.4-3.2-0.9-1.5-0.6-3-1.3-1.4-0.7-2.7-1.6-1.3-0.9-2.5-2.1-1.2-1.1-2.1-2.3-1-1.3-1.7-2.7-0.8-1.6-1.4-3.3-0.6-1.7-1-3.5-0.4-1.8-0.6-3.6-0.1-1.7-0.1-3.6zm13 0.7q-0.1 1.5 0 2.9 0.2 1.5 0.6 2.9 0.5 1.4 1.1 2.7 0.7 1.2 1.6 2.4 0.8 0.9 1.8 1.6 0.9 0.7 2 1.2 1.1 0.5 2.3 0.7 1.2 0.2 2.3 0.2 1.2 0 2.4-0.2 1.2-0.2 2.3-0.7 1.1-0.5 2-1.2 1-0.7 1.8-1.6 0.9-1.2 1.6-2.5 0.6-1.3 1.1-2.7 0.4-1.4 0.6-2.9 0.1-1.4 0-2.9 0.1-1.4 0-2.9-0.2-1.4-0.6-2.8-0.5-1.3-1.2-2.6-0.6-1.3-1.5-2.4-0.8-0.9-1.8-1.7-0.9-0.7-2-1.2-1.1-0.5-2.3-0.7-1.2-0.2-2.4-0.2-1.2 0-2.3 0.2-1.2 0.2-2.3 0.7-1.1 0.5-2 1.3-1 0.7-1.8 1.6-0.9 1.1-1.6 2.4-0.6 1.3-1.1 2.7-0.4 1.4-0.6 2.9-0.1 1.4 0 2.8z"/>
	<path id="Layer" class="s0" d="m617.6 258.5h-12.6v-24.4q0.1-1.2 0.1-2.5-0.1-1.2-0.2-2.5-0.1-1.2-0.3-2.5-0.1-1.2-0.4-2.4-0.2-0.6-0.4-1.1-0.3-0.5-0.6-0.9-0.3-0.5-0.8-0.9-0.4-0.4-0.8-0.7-0.5-0.3-1-0.5-0.5-0.3-1-0.4-0.6-0.2-1.1-0.2-0.6-0.1-1.1-0.1-0.8 0-1.6 0.1-0.8 0.1-1.5 0.4-0.7 0.2-1.4 0.5-0.7 0.4-1.4 0.8-0.6 0.4-1.2 0.9-0.5 0.5-1 1.1-0.5 0.6-0.8 1.3-0.4 0.7-0.6 1.4-0.3 1.4-0.5 2.7-0.2 1.4-0.3 2.8-0.1 1.3-0.1 2.7-0.1 1.4 0 2.8v21.6h-12.7v-47.7h11.8v7q1.3-1.9 3-3.4 1.8-1.5 3.8-2.5 2.1-1.1 4.3-1.6 2.3-0.5 4.6-0.5 1 0 1.9 0 1 0.1 2 0.3 0.9 0.2 1.8 0.5 1 0.3 1.9 0.7 0.7 0.3 1.5 0.7 0.7 0.4 1.4 0.9 0.6 0.4 1.2 1 0.6 0.6 1.1 1.2 0.5 0.6 0.8 1.3 0.4 0.6 0.7 1.3 0.4 0.6 0.6 1.3 0.2 0.7 0.4 1.4 0.2 1.1 0.3 2.1 0.1 1.1 0.2 2.1 0.1 1.1 0.1 2.1 0.1 1.1 0 2.2z"/>
	<path id="Layer" fill-rule="evenodd" class="s0" d="m648.7 258.5v-65.9h21.3q2-0.1 4-0.1 1.9 0 3.9 0.1 2 0.1 4 0.4 1.9 0.2 3.9 0.5 1.4 0.4 2.7 1 1.4 0.6 2.6 1.4 1.2 0.8 2.2 1.9 1.1 1 2 2.1 0.9 1.4 1.7 3 0.7 1.5 1.2 3.1 0.5 1.7 0.7 3.4 0.2 1.7 0.2 3.4 0 1.3-0.1 2.6-0.1 1.3-0.4 2.6-0.3 1.3-0.7 2.6-0.5 1.2-1 2.4-0.5 1-1.1 1.8-0.6 0.9-1.3 1.7-0.7 0.8-1.5 1.6-0.8 0.7-1.7 1.3-0.7 0.6-1.6 1-0.8 0.5-1.7 0.9-0.8 0.4-1.7 0.7-0.9 0.3-1.9 0.5-1.7 0.3-3.4 0.5-1.7 0.2-3.5 0.3-1.7 0.1-3.4 0.2-1.8 0-3.5 0h-8.4v24.9zm13.3-54.8v18.6h7.2q1.3 0.1 2.7 0.1 1.3 0 2.6-0.1 1.3-0.2 2.6-0.4 1.3-0.2 2.6-0.6 1.3-0.4 2.3-1.3 1.1-0.8 1.9-2 0.7-1.1 1.1-2.4 0.4-1.3 0.3-2.7 0.1-0.8 0-1.6-0.2-0.8-0.4-1.6-0.3-0.7-0.7-1.4-0.4-0.7-0.9-1.3-0.6-0.6-1.2-1.1-0.6-0.4-1.3-0.8-0.6-0.4-1.4-0.6-0.7-0.3-1.5-0.4-1.2-0.2-2.4-0.3-1.2-0.1-2.4-0.1-1.2-0.1-2.4-0.1-1.2 0-2.4 0.1z"/>
	<path id="Layer" class="s0" d="m718.3 258.5h-12.7v-47.7h11.7v7q0.6-0.9 1.1-1.8 0.6-0.8 1.3-1.6 0.7-0.8 1.5-1.5 0.7-0.8 1.6-1.4 0.6-0.4 1.2-0.7 0.7-0.3 1.4-0.5 0.7-0.2 1.4-0.3 0.7-0.1 1.4 0 1.1-0.1 2.2 0.1 1.1 0.1 2.2 0.4 1 0.3 2.1 0.8 1 0.4 1.9 1l-3.9 11.1q-0.7-0.5-1.3-0.9-0.7-0.4-1.5-0.6-0.7-0.3-1.5-0.4-0.8-0.2-1.5-0.2-0.6-0.1-1.3 0-0.6 0.1-1.1 0.3-0.6 0.2-1.1 0.5-0.6 0.3-1 0.7-0.6 0.5-1.1 1.1-0.5 0.6-0.8 1.2-0.4 0.7-0.7 1.4-0.2 0.8-0.3 1.5-0.4 2-0.6 4-0.3 2-0.4 4-0.1 2-0.2 4 0 2 0.1 4z"/>
	<path id="Layer" fill-rule="evenodd" class="s0" d="m735.3 233.9q0-1.5 0.2-3.1 0.2-1.6 0.6-3.1 0.4-1.6 1-3 0.6-1.5 1.3-2.9 0.8-1.4 1.7-2.7 0.9-1.3 2-2.4 1.2-1.2 2.4-2.1 1.3-1 2.7-1.7 1.4-0.8 3-1.4 1.5-0.6 3.1-1 1.6-0.4 3.2-0.6 1.7-0.2 3.3-0.2 2.5 0 4.9 0.4 2.4 0.4 4.7 1.3 2.3 0.9 4.4 2.2 2 1.4 3.8 3.1c2.2 2.4 3.9 5.2 5.1 8.3 1.2 3 1.8 6.3 1.8 9.5 0 3.3-0.6 6.5-1.8 9.6-1.2 3-2.9 5.8-5.1 8.2q-1.7 1.8-3.8 3.2-2 1.3-4.3 2.3-2.2 0.9-4.6 1.3-2.4 0.4-4.9 0.4-1.6 0-3.2-0.2-1.7-0.2-3.3-0.5-1.6-0.4-3.1-1-1.5-0.5-3-1.2-1.4-0.7-2.7-1.7-1.3-0.9-2.5-2-1.1-1.1-2.1-2.3-1-1.3-1.7-2.7-0.8-1.6-1.4-3.3-0.6-1.7-1-3.5-0.4-1.8-0.6-3.5-0.1-1.8-0.1-3.7zm12.9 0.7q-0.1 1.5 0.1 2.9 0.2 1.5 0.6 2.9 0.4 1.4 1.1 2.6 0.7 1.3 1.6 2.5 0.8 0.9 1.7 1.6 1 0.7 2.1 1.2 1.1 0.4 2.2 0.7 1.2 0.2 2.4 0.2 1.2 0 2.3-0.2 1.2-0.2 2.3-0.7 1.1-0.5 2.1-1.2 0.9-0.7 1.7-1.6 0.9-1.2 1.6-2.5 0.7-1.3 1.1-2.7 0.4-1.4 0.6-2.9 0.2-1.4 0.1-2.9 0.1-1.4-0.1-2.9-0.2-1.4-0.6-2.8-0.4-1.3-1.1-2.6-0.7-1.3-1.6-2.4-0.8-0.9-1.7-1.7-1-0.7-2.1-1.2-1.1-0.5-2.2-0.7-1.2-0.2-2.4-0.2-1.2 0-2.4 0.2-1.2 0.3-2.3 0.8-1 0.4-2 1.2-1 0.7-1.7 1.6-0.9 1.1-1.6 2.4-0.7 1.3-1.1 2.7-0.4 1.4-0.6 2.9-0.2 1.4-0.1 2.8z"/>
	<path id="Layer" class="s0" d="m803.8 258.5l-19.2-47.7h13.1l8.9 24.3 2.7 8.2c0.6-2.2 1-3.5 1.2-4.3 0.5-1.3 0.9-2.7 1.4-4.2l9.1-24.3h12.9l-18.9 47.7z"/>
	<path id="Layer" class="s0" d="m838 204.3v-11.7h12.7v11.5zm0 54.3v-47.8h12.6v47.8z"/>
	<path id="Layer" fill-rule="evenodd" class="s0" d="m903.6 258.5h-11.8v-7q-0.6 1-1.4 1.8-0.8 0.9-1.6 1.7-0.9 0.8-1.8 1.4-1 0.7-2 1.2-0.9 0.5-1.9 0.9-1 0.3-2 0.6-1 0.2-2 0.3-1 0.1-2.1 0.1-2 0.1-4-0.4-1.9-0.4-3.8-1.2-1.8-0.9-3.4-2.1-1.6-1.2-2.9-2.8-1.5-1.9-2.7-4.1-1.2-2.2-1.9-4.6-0.8-2.3-1.1-4.8-0.3-2.5-0.2-5-0.1-2.4 0.1-4.9 0.3-2.5 1.1-4.9 0.7-2.3 1.9-4.5 1.2-2.2 2.7-4.1 1.4-1.6 3-2.7 1.6-1.2 3.5-2 1.9-0.9 3.8-1.2 2-0.4 4-0.4 2 0 4 0.5 1.9 0.4 3.7 1.3 1.8 0.8 3.4 2.1 1.5 1.2 2.8 2.7v-23.8h12.6zm-33.6-25q-0.1 1.4-0.1 2.9 0.1 1.4 0.4 2.8 0.2 1.4 0.7 2.8 0.4 1.3 1 2.6 0.7 1.1 1.6 2 0.9 0.9 2 1.6 1.1 0.6 2.3 0.9 1.3 0.4 2.5 0.4 1.1 0 2.2-0.3 1-0.2 2-0.7 0.9-0.5 1.7-1.2 0.9-0.7 1.5-1.5 0.8-1.2 1.5-2.6 0.6-1.3 1-2.7 0.4-1.4 0.5-2.9 0.2-1.4 0.1-2.9 0.1-1.5 0-3.1-0.1-1.5-0.5-3-0.4-1.5-1-2.9-0.6-1.5-1.5-2.8-0.7-0.8-1.5-1.5-0.9-0.7-1.9-1.2-1-0.4-2-0.7-1.1-0.2-2.2-0.1-1.1-0.1-2.1 0.2-1.1 0.2-2 0.6-1 0.5-1.9 1.2-0.8 0.6-1.5 1.4-0.8 1.2-1.4 2.5-0.6 1.3-0.9 2.6-0.4 1.4-0.5 2.8-0.1 1.4 0 2.8z"/>
	<path id="Layer" fill-rule="evenodd" class="s0" d="m939.9 243.3l12.6 2.1q-0.5 1.6-1.3 3.1-0.7 1.5-1.7 2.8-1 1.3-2.1 2.5-1.2 1.2-2.5 2.1-1.5 1-3.1 1.6-1.5 0.7-3.2 1.2-1.7 0.4-3.4 0.6-1.7 0.2-3.4 0.2-2.6 0.2-5.2-0.3-2.6-0.4-5-1.5-2.4-1-4.5-2.6-2.1-1.6-3.7-3.7-1.2-1.8-2.2-3.7-0.9-2-1.5-4.1-0.6-2.1-0.9-4.3-0.3-2.1-0.2-4.3-0.1-2.5 0.2-5 0.4-2.5 1.2-4.9 0.8-2.4 2-4.6 1.3-2.2 2.9-4.1 1.5-1.6 3.3-2.9 1.8-1.3 3.8-2.1 2-0.9 4.2-1.3 2.1-0.4 4.3-0.4 2.4-0.1 4.7 0.3 2.3 0.4 4.5 1.3 2.2 0.9 4.1 2.3 2 1.4 3.5 3.1 6.2 7.1 5.9 21.5h-31.6q0 1.2 0.2 2.4 0.2 1.2 0.6 2.3 0.3 1.1 0.9 2.1 0.6 1 1.4 1.9 0.7 0.8 1.5 1.4 0.8 0.6 1.8 1 0.9 0.4 1.9 0.6 1 0.2 2 0.2 0.7 0 1.4-0.1 0.6-0.1 1.3-0.3 0.6-0.2 1.2-0.5 0.6-0.3 1.2-0.7 0.5-0.5 1-1.1 0.4-0.6 0.8-1.3 0.4-0.6 0.6-1.3 0.3-0.8 0.5-1.5zm0.7-12.6q0.1-1.2-0.1-2.3-0.1-1.1-0.5-2.2-0.4-1.1-0.9-2.1-0.6-1-1.3-1.9c-0.9-0.9-1.9-1.6-3-2.1-1.2-0.5-2.4-0.8-3.7-0.8-1.3 0-2.5 0.3-3.6 0.8-1.2 0.5-2.2 1.2-3.1 2.1q-0.7 0.9-1.2 1.8-0.6 1-0.9 2-0.4 1.1-0.5 2.2-0.1 1.1 0 2.2z"/>
	<path id="Layer" class="s0" d="m971.8 258.5h-12.7v-47.7h11.7v7q0.5-0.9 1.1-1.8 0.6-0.8 1.3-1.6 0.7-0.8 1.4-1.5 0.8-0.8 1.6-1.4 0.6-0.4 1.3-0.7 0.6-0.3 1.3-0.5 0.7-0.2 1.4-0.3 0.7-0.1 1.4 0 1.2-0.1 2.3 0.1 1.1 0.1 2.1 0.4 1.1 0.3 2.1 0.8 1 0.4 2 1l-4 11.1q-0.6-0.5-1.3-0.9-0.7-0.4-1.4-0.6-0.8-0.3-1.6-0.4-0.7-0.2-1.5-0.2-0.7-0.1-1.3 0-0.6 0.1-1.1 0.3-0.6 0.2-1.1 0.5-0.6 0.3-1 0.7-0.6 0.5-1.1 1.1-0.4 0.6-0.8 1.2-0.4 0.7-0.6 1.4-0.3 0.8-0.4 1.5-0.4 2-0.6 4-0.3 2-0.4 4-0.2 2-0.2 4 0 2 0.1 4z"/>
</svg>